<svg preserveAspectRatio="none" width="100%" height="100%" overflow="visible" style="display: block;" viewBox="0 0 127.318 25.5657" fill="none" xmlns="http://www.w3.org/2000/svg">
<g id="Group">
<path id="Vector" d="M0 15.7288V12.453H2.4362V15.7288C2.4362 20.6447 4.92786 23.1006 9.90692 23.1006H13.3287V18.1507C13.3287 12.164 16.3451 9.17285 22.378 9.17285H25.8339V19.4636C25.8339 21.8896 26.7641 23.1006 28.6328 23.1006H29.4562V25.5606H28.6328C26.9219 25.5606 25.6164 25.021 24.7161 23.9376C23.8159 22.8584 23.3679 21.367 23.3679 19.4636V11.565H22.4122C20.1296 11.565 18.4571 12.0833 17.3947 13.12C16.3323 14.1567 15.799 15.835 15.799 18.1507V25.5564H9.90692C6.70275 25.5564 4.25375 24.6981 2.5514 22.9858C0.85331 21.2693 0 18.8517 0 15.7288Z" fill="#135452"/>
<path id="Vector_2" d="M41.9572 25.5607H28.7949V23.1006H41.9572V25.5607Z" fill="#135452"/>
<path id="Vector_3" d="M41.2998 25.561V23.1009H47.4863C46.4751 22.4466 45.6773 21.5841 45.0842 20.5134C44.4912 19.4427 44.1968 18.2827 44.1968 17.0378C44.1968 14.8752 44.9733 13.0227 46.5349 11.4846C48.0921 9.9465 49.9993 9.17321 52.2606 9.17321C54.5218 9.17321 56.51 9.98049 58.1015 11.5993C59.6929 13.2181 60.4865 15.1938 60.4865 17.5307V23.1009H63.9424V25.561H41.2998ZM46.4666 17.3692C46.4666 18.9625 47.0298 20.3179 48.1604 21.4311C49.291 22.5443 50.6563 23.1009 52.2563 23.1009H58.0161V17.365C58.0161 15.7717 57.4572 14.4163 56.3394 13.3031C55.2216 12.1899 53.8605 11.6333 52.2606 11.6333C50.6606 11.6333 49.291 12.1899 48.1647 13.3031C47.034 14.4163 46.4709 15.7717 46.4709 17.365L46.4666 17.3692ZM50.9721 4.39326C51.2793 4.0661 51.6632 3.90039 52.124 3.90039C52.5848 3.90039 52.9773 4.0661 53.3101 4.39326C53.6387 4.72042 53.8051 5.11556 53.8051 5.57444C53.8051 6.03331 53.6387 6.4157 53.3101 6.72162C52.9816 7.04878 52.5848 7.21449 52.124 7.21449C51.6632 7.21449 51.275 7.05728 50.955 6.73862C50.635 6.41995 50.4771 6.03331 50.4771 5.57444C50.4771 5.11556 50.6435 4.72467 50.9721 4.39326Z" fill="#135452"/>
<path id="Vector_4" d="M63.2812 23.1056H64.1047C66.0374 23.1056 67.0017 21.8607 67.0017 19.3709V9.17787H69.4379V18.844C69.4379 20.2206 69.7621 21.2743 70.4106 22.0051C71.0592 22.7359 71.8741 23.1013 72.8639 23.1013C73.8538 23.1013 74.6943 22.7359 75.33 22.0051C75.9657 21.2743 76.2857 20.2206 76.2857 18.844V9.17787H78.7518V18.844C78.7518 20.2206 79.076 21.2743 79.7203 22.0051C80.3645 22.7359 81.1837 23.1013 82.1735 23.1013C83.1634 23.1013 84.0039 22.7359 84.6439 22.0051C85.2796 21.2743 85.5996 20.2206 85.5996 18.844V9.17787H88.0699V19.3709C88.0699 21.8607 89.0256 23.1056 90.9327 23.1056H91.7562V25.5657H90.9327C88.9147 25.5657 87.511 24.7032 86.7217 22.9781C85.7105 24.7032 84.2001 25.5657 82.1821 25.5657C81.1709 25.5657 80.2621 25.3192 79.4515 24.8264C78.6408 24.3335 78.0051 23.6282 77.5443 22.7147C76.5587 24.6139 75.0015 25.5657 72.8724 25.5657C70.7434 25.5657 69.3397 24.6904 68.3328 22.9441C67.5649 24.6904 66.1612 25.5657 64.1218 25.5657H63.2983V23.1056H63.2812ZM73.6148 4.45741C73.922 4.1515 74.2932 3.99854 74.7327 3.99854C75.1721 3.99854 75.5476 4.15575 75.8676 4.47441C76.1833 4.79307 76.3454 5.16697 76.3454 5.60461C76.3454 6.04224 76.1918 6.41188 75.8846 6.7178C75.5561 7.04496 75.1721 7.21067 74.7327 7.21067C74.2932 7.21067 73.922 7.05345 73.6148 6.73479C73.3076 6.41612 73.154 6.04224 73.154 5.60461C73.154 5.16697 73.3076 4.78457 73.6148 4.45741ZM75.9486 1.5427C75.9486 1.12631 76.0894 0.777919 76.3753 0.493246C76.6611 0.208574 77.011 0.0683617 77.4291 0.0683617C77.8259 0.0683617 78.163 0.208574 78.4488 0.493246C78.7347 0.777919 78.8755 1.12631 78.8755 1.5427C78.8755 1.93359 78.7347 2.27351 78.4488 2.55818C78.163 2.84285 77.8259 2.98306 77.4291 2.98306C77.011 2.98306 76.6611 2.84285 76.3753 2.55818C76.0894 2.27351 75.9486 1.93359 75.9486 1.5427ZM78.483 5.60461C78.483 5.16697 78.6366 4.78883 78.9437 4.47441C79.2509 4.16 79.6221 3.99854 80.0616 3.99854C80.501 3.99854 80.8808 4.15575 81.1965 4.47441C81.5165 4.79307 81.6743 5.16697 81.6743 5.60461C81.6743 6.04224 81.5207 6.41188 81.2136 6.7178C80.885 7.04496 80.501 7.21067 80.0616 7.21067C79.6221 7.21067 79.2509 7.05345 78.9437 6.73479C78.6366 6.41612 78.483 6.04224 78.483 5.60461Z" fill="#135452"/>
<path id="Vector_5" d="M91.0869 25.5606V23.1006H96.6164C95.6521 22.51 94.8884 21.7069 94.3295 20.6915C93.7706 19.676 93.489 18.567 93.489 17.3646C93.489 15.0915 94.2954 13.1583 95.9081 11.565C97.5209 9.97164 99.4579 9.17285 101.715 9.17285C103.972 9.17285 105.909 9.97164 107.522 11.565C109.134 13.1583 109.941 15.0915 109.941 17.3646V20.1816C109.941 21.0781 110.175 21.7877 110.649 22.3103C111.123 22.8329 111.771 23.0963 112.607 23.0963H113.461V25.5564H112.607C111.421 25.5564 110.457 25.2462 109.71 24.6216C108.964 23.9971 108.503 23.1303 108.328 22.0171C107.603 23.1091 106.656 23.9716 105.482 24.6047C104.309 25.2377 103.05 25.5564 101.715 25.5564H91.0869V25.5606ZM95.9252 17.3689C95.9252 18.9409 96.4884 20.2921 97.619 21.418C98.7496 22.544 100.115 23.1048 101.715 23.1048C103.315 23.1048 104.65 22.544 105.781 21.418C106.912 20.2921 107.475 18.9452 107.475 17.3689C107.475 15.7925 106.912 14.4457 105.781 13.3197C104.65 12.1938 103.298 11.6329 101.715 11.6329C100.132 11.6329 98.7454 12.198 97.619 13.3197C96.4926 14.4414 95.9252 15.7925 95.9252 17.3689Z" fill="#135452"/>
<path id="Vector_6" d="M112.808 23.1049H113.661C115.594 23.1049 116.558 21.86 116.558 19.3702V0.00390861H119.024V19.3702C119.024 21.2694 118.551 22.7777 117.608 23.8909C116.665 25.0041 115.347 25.5607 113.657 25.5607H112.804V23.1006L112.808 23.1049Z" fill="#135452"/>
<path id="Vector_7" d="M127.318 25.5611H124.882V0H127.318V25.5611Z" fill="#135452"/>
</g>
</svg>
